<svg id="SvgjsSvg1021" width="288" height="288" xmlns="http://www.w3.org/2000/svg" version="1.1" xmlns:xlink="http://www.w3.org/1999/xlink" xmlns:svgjs="http://svgjs.com/svgjs"><defs id="SvgjsDefs1022"></defs><g id="SvgjsG1023"><svg xmlns="http://www.w3.org/2000/svg" viewBox="0 0 64 64" width="288" height="288"><path d="M54 6h-4v11h2V8h2v45.236l5 10 5-10V2H54v4zm2-2h6v48.764l-3 6-3-6V4zM3 62h42V2H3v5H0v2h3v6H0v2h3v6H0v2h3v6H0v2h3v6H0v2h3v6H0v2h3v6H0v2h3v5zm40-2h-8V4h8v56zM5 49h3v-2H5v-6h3v-2H5v-6h3v-2H5v-6h3v-2H5v-6h3v-2H5V9h3V7H5V4h28v56H5v-3h3v-2H5v-6z" fill="#ffffff" class="color000 svgShape"></path></svg></g></svg>